<svg version="1.1" id="Layer_1" xmlns="http://www.w3.org/2000/svg" xmlns:xlink="http://www.w3.org/1999/xlink" x="0px" y="0px"
	 width="100%" viewBox="0 0 1024 1024" enable-background="new 0 0 1024 1024" xml:space="preserve">
<path fill="#FFFFFF" opacity="1.000000" stroke="none" 
	d="
M255.349350,623.000122 
	C255.349579,696.860657 255.349579,770.221191 255.349579,843.581726 
	C260.043732,841.419861 261.878143,838.011475 264.166962,835.039307 
	C286.820618,805.621643 309.437592,776.175659 331.952972,746.652161 
	C333.689056,744.375671 335.492249,743.563293 338.226746,743.596497 
	C347.558380,743.709717 356.893829,743.730835 366.224426,743.578125 
	C369.328400,743.527344 371.429932,744.469116 373.425873,746.962341 
	C403.192108,784.144348 432.338623,821.809937 461.469879,859.488037 
	C470.025940,870.554382 478.595001,881.611084 487.225433,892.619446 
	C488.100403,893.735413 488.748016,895.224243 490.383301,895.688416 
	C492.215515,894.328979 491.616730,892.349304 491.617371,890.637695 
	C491.639801,831.306335 491.632080,771.975037 491.582794,712.643677 
	C491.579346,708.484253 491.007538,704.320679 491.092255,700.166992 
	C491.182159,695.759705 489.063416,694.335754 484.987946,694.328674 
	C473.491394,694.308777 461.993042,694.222534 450.499115,693.983643 
	C408.847290,693.118042 367.190216,693.551758 325.535706,693.388611 
	C317.780518,693.358276 317.767731,693.375854 317.764618,685.414001 
	C317.756958,665.800110 317.762115,646.186218 317.762115,626.231384 
	C320.710175,626.366089 323.790253,626.629395 326.870392,626.629944 
	C450.699799,626.651611 574.529236,626.625549 698.358459,626.778320 
	C701.677979,626.782410 706.043091,624.034058 708.131104,627.272034 
	C709.620422,629.581604 708.305542,633.659790 708.350098,636.947327 
	C708.578125,653.772339 707.896362,670.600891 708.757568,687.426941 
	C709.114746,694.406799 707.839294,695.419739 701.112793,694.216003 
	C697.306152,693.534851 693.516724,693.391052 689.682861,693.391785 
	C641.184387,693.400818 592.685974,693.387634 544.187500,693.392944 
	C536.354492,693.393799 536.349915,693.422363 536.349609,701.317566 
	C536.346680,764.815552 536.345642,828.313477 536.344177,891.811462 
	C536.344116,893.619690 536.344116,895.427917 536.344116,897.236206 
	C536.701172,897.429810 537.058228,897.623352 537.415283,897.816956 
	C542.278748,891.662537 547.210449,885.560669 551.994507,879.345154 
	C583.781677,838.046692 615.864136,796.968018 647.045288,755.216431 
	C653.814331,746.152527 660.608948,741.944641 671.697876,743.478516 
	C677.749207,744.315491 684.010498,743.608459 690.176514,743.660583 
	C691.778198,743.674133 693.181213,743.659973 694.490356,745.351074 
	C719.664368,777.869751 744.951172,810.301086 770.220703,842.745789 
	C770.821289,843.516846 771.338806,844.446533 773.048340,844.409607 
	C773.048340,698.089783 773.048340,551.774963 773.048340,405.049042 
	C775.521484,403.367798 811.266418,402.544983 818.229431,404.306732 
	C817.939087,438.478607 817.426208,472.562531 817.399353,506.646851 
	C817.296997,636.642639 817.351318,766.638550 817.345703,896.634460 
	C817.345642,898.467651 817.270020,900.302856 817.331726,902.133667 
	C817.432129,905.113647 815.939575,906.363037 813.075989,906.361267 
	C797.076660,906.351135 781.076904,906.308960 765.078247,906.416504 
	C762.204834,906.435852 760.981445,904.538574 759.581970,902.737366 
	C742.824280,881.169067 726.101807,859.573364 709.350952,837.999695 
	C699.035156,824.713684 688.694763,811.446594 678.338257,798.192261 
	C677.440613,797.043335 676.339478,796.053284 675.374695,795.033630 
	C672.879700,796.004944 671.840393,797.998169 670.560730,799.671387 
	C645.464966,832.482117 620.272217,865.220276 595.450134,898.237061 
	C590.943604,904.231445 586.275513,906.658386 578.587341,906.586426 
	C534.259338,906.171509 489.925140,906.318726 445.593933,906.496704 
	C440.894806,906.515625 438.055847,904.909485 435.233887,901.271179 
	C408.385406,866.656433 381.353607,832.183838 354.355316,797.685364 
	C353.557526,796.665955 352.994904,795.345215 350.799530,794.761292 
	C345.662659,801.494751 340.303864,808.431580 335.037323,815.437744 
	C313.221069,844.460449 291.391907,873.473694 269.698029,902.587646 
	C267.556885,905.461121 265.297638,906.495667 261.782349,906.451904 
	C247.451736,906.273499 233.117538,906.384888 218.784668,906.378967 
	C211.655365,906.375977 211.646317,906.365662 211.646255,899.307373 
	C211.645004,757.978516 211.645691,616.649658 211.646591,475.320801 
	C211.647308,359.157806 211.648270,242.994827 211.651016,126.831848 
	C211.651215,118.855118 211.658478,118.829788 219.455521,118.815552 
	C231.582489,118.793404 243.709518,118.809692 255.349121,118.809692 
	C255.349121,287.027557 255.349121,454.763824 255.349350,623.000122 
z"/>
<path fill="#FFFFFF" opacity="1.000000" stroke="none" 
	d="
M284.734711,520.189087 
	C269.230408,498.266571 261.598389,474.060883 259.502228,447.775940 
	C257.498688,422.652893 260.041290,398.099976 265.991882,373.657867 
	C271.764862,349.945221 282.097778,328.252045 293.559082,306.982452 
	C312.285797,272.229797 331.064117,237.504089 350.013580,202.872589 
	C359.046631,186.364014 368.537140,170.105988 377.781311,153.712402 
	C378.916321,151.699524 380.083405,150.490204 382.780273,150.517014 
	C407.611053,150.763779 432.443695,150.822174 457.275696,150.951279 
	C458.743927,150.958908 460.301666,150.714752 461.788239,152.166565 
	C435.435486,199.141556 409.045654,246.182709 382.863861,292.852966 
	C384.921906,295.371704 386.298950,294.500763 387.677216,293.980377 
	C428.498871,278.566925 467.688873,283.042694 504.178040,305.927948 
	C540.276978,328.568420 559.810547,362.487061 566.514587,404.364044 
	C568.802429,418.655365 569.490173,433.045288 568.046265,447.139618 
	C562.631836,499.991852 539.306824,541.975159 490.590515,566.897400 
	C463.489960,580.761414 434.476135,588.604126 403.937744,586.087524 
	C354.768219,582.035461 313.703522,562.120605 284.734711,520.189087 
M441.751740,508.236908 
	C453.891632,503.360138 464.422333,496.222504 472.333038,485.689880 
	C491.191986,460.580444 493.841400,432.374756 485.996948,403.142273 
	C477.086609,369.937714 439.459320,348.503967 408.639862,351.098022 
	C376.233887,353.825592 355.400299,371.177612 344.107758,401.054535 
	C335.998596,422.509216 336.529449,444.098877 343.855347,465.472717 
	C348.963593,480.376495 358.104675,493.260345 371.635071,501.110870 
	C393.297974,513.679993 416.636597,517.972839 441.751740,508.236908 
z"/>
<path fill="#FFFFFF" opacity="1.000000" stroke="none" 
	d="
M651.337341,395.437286 
	C676.690247,339.316956 699.559326,282.534576 725.264587,227.219543 
	C722.709473,224.979660 720.472961,225.401230 718.383240,225.399857 
	C679.561707,225.374420 640.738037,225.158936 601.919861,225.522827 
	C590.443237,225.630402 578.914490,226.804840 567.474487,226.003952 
	C554.978821,225.129150 542.513916,225.680145 530.039978,225.397934 
	C524.716675,225.277466 519.476929,226.573593 514.111267,226.332275 
	C510.994751,226.192093 509.745911,225.233948 509.603455,221.970047 
	C508.680878,200.830032 508.310913,179.687347 508.882355,158.534256 
	C509.063568,151.825150 510.240051,151.030701 516.720642,152.141434 
	C519.159058,152.559372 521.679199,152.637405 524.162170,152.638397 
	C613.801636,152.674271 703.441040,152.664368 793.080444,152.737137 
	C798.887939,152.741852 804.692261,153.417236 810.503235,153.653564 
	C813.105164,153.759384 813.923889,155.046341 813.930725,157.465500 
	C813.988647,177.958740 814.131958,198.451797 814.159485,218.945023 
	C814.163391,221.835342 812.534180,224.332642 811.384033,226.898972 
	C802.602173,246.493881 793.664978,266.019897 784.991882,285.662628 
	C755.207458,353.118225 725.529114,420.620697 695.772888,488.088806 
	C682.808777,517.482971 669.628723,546.782837 656.852417,576.257996 
	C654.479370,581.732544 652.385559,584.234802 645.425537,583.717773 
	C630.843079,582.634521 616.125366,583.369629 601.463196,583.363220 
	C592.632568,583.359314 583.801819,583.385986 574.971313,583.350281 
	C573.038086,583.342468 570.961182,583.769287 568.810730,581.762390 
	C596.240112,519.822144 623.705444,457.800659 651.337341,395.437286 
z"/>
<path fill="#FFFFFF" opacity="1.000000" stroke="none" 
	d="
M181.352509,318.000122 
	C181.377121,415.806854 181.209610,513.114258 181.548523,610.419922 
	C181.644272,637.905701 181.740387,665.394714 181.878815,692.881958 
	C181.907303,698.535706 181.558029,704.196167 181.738113,709.842163 
	C181.818054,712.348511 180.826248,713.287048 178.678680,713.293579 
	C165.683182,713.333069 152.687485,713.305664 139.691849,713.297424 
	C137.607773,713.296082 136.704636,712.168030 136.704193,710.160461 
	C136.703781,708.327881 136.654099,706.495361 136.654083,704.662781 
	C136.652786,512.048706 136.653931,319.434601 136.655899,126.820496 
	C136.655991,118.806389 136.660126,118.790955 144.920364,118.781326 
	C157.055893,118.767181 169.191437,118.777687 181.352356,118.777687 
	C181.352356,185.352951 181.352356,251.426514 181.352509,318.000122 
z"/>
<path fill="#FFFFFF" opacity="1.000000" stroke="none" 
	d="
M844.655945,197.999939 
	C844.656372,173.336929 844.767456,149.172989 844.561340,125.011757 
	C844.522095,120.407036 846.034180,118.784393 850.524902,118.838928 
	C862.020813,118.978516 873.520691,118.907944 885.017517,118.781616 
	C888.246582,118.746147 889.627075,119.999512 889.356689,123.208923 
	C889.245239,124.532295 889.349609,125.873528 889.349609,127.206642 
	C889.349792,319.344147 889.357178,511.481628 889.329041,703.619141 
	C889.327332,714.916687 890.585327,713.236023 879.408813,713.340576 
	C869.911072,713.429382 860.399170,713.075989 850.918335,713.488831 
	C845.687439,713.716614 844.556580,711.814514 844.565796,706.922913 
	C844.701233,634.934082 844.651428,562.944946 844.650940,490.955902 
	C844.650330,393.470581 844.654358,295.985260 844.655945,197.999939 
z"/>
</svg>